<?xml version="1.0" encoding="UTF-8"?>
<svg width="80px" height="80px" viewBox="0 0 80 80" version="1.1" xmlns="http://www.w3.org/2000/svg" xmlns:xlink="http://www.w3.org/1999/xlink">
    <!-- Generator: Sketch 48.1 (47250) - http://www.bohemiancoding.com/sketch -->
    <title>1</title>
    <desc>Created with Sketch.</desc>
    <defs>
        <path d="M52.3097578,9.25108793 L26.8655137,0.0638173729 C26.6296016,-0.0212724576 26.3703984,-0.0212724576 26.1345898,0.0638173729 L0.690345703,9.25108793 L0.690138672,9.25189831 C0.606808594,9.28208494 0.5266875,9.32199613 0.45215625,9.37274613 C0.168833984,9.5660216 0,9.88257603 0,10.2204029 L0,39.7795971 C0,40.2122383 0.275455078,40.5990932 0.690242187,40.7489121 L26.1344863,49.9361826 C26.2531152,49.9790314 26.3768164,50 26.4998965,50 C26.6242187,50 26.7479199,49.9779172 26.8650996,49.9355748 L26.8655137,49.9361826 L52.3097578,40.7489121 C52.7245449,40.5990932 53,40.2123396 53,39.7795971 L53,10.2204029 C53,9.78766035 52.7245449,9.40090681 52.3097578,9.25108793 Z M25.4442441,47.4844812 L2.11151172,39.059575 L2.11151172,11.7028906 L6.86246484,13.4184637 L6.86246484,25.9365959 C6.86246484,26.3692372 7.13791992,26.756092 7.55270703,26.9059109 L18.9550566,31.0231444 C19.0736855,31.0659932 19.1973867,31.0869618 19.3204668,31.0869618 C19.533502,31.0869618 19.7446738,31.0238535 19.9242734,30.9013849 C20.2074922,30.7082108 20.3763262,30.3916563 20.3763262,30.0538294 L20.3763262,18.2979603 L25.4440371,20.1277968 L25.4442441,47.4844812 Z M18.264918,17.5354946 L18.264918,28.5711392 L8.97408008,25.2163713 L8.97408008,14.1807267 L18.264918,17.5354946 Z M10.9682051,12.690034 L19.3206738,9.67410595 L27.6731426,12.690034 L19.3206738,15.705962 L10.9682051,12.690034 Z M26.5,18.3064693 L22.3592715,16.8113194 L31.0886406,13.6592476 C31.5034277,13.5094288 31.7788828,13.1226752 31.7788828,12.6899327 C31.7788828,12.2571901 31.5034277,11.8704366 31.0886406,11.7206177 L19.6861875,7.60348544 C19.4502754,7.51839561 19.1911758,7.51839561 18.9551602,7.60348544 L7.90683398,11.5929829 L4.10574023,10.2204029 L26.5,2.13443788 L48.8942598,10.2205042 L26.5,18.3064693 Z M50.8884883,39.059575 L27.5558594,47.4843799 L27.5558594,20.1277968 L50.8884883,11.7028906 L50.8884883,39.059575 Z" id="path-1"></path>
    </defs>
    <g id="Icon" stroke="none" stroke-width="1" fill="none" fill-rule="evenodd">
        <g id="1">
            <g id="259572" transform="translate(14.000000, 15.000000)">
                <path d="M48.7262371,36.4869187 C48.5186017,35.9691595 47.8945247,35.7043528 47.3320679,35.8953898 L36.043342,39.7297474 C35.4808852,39.9207844 35.193218,40.4953649 35.400747,41.0131242 C35.5626197,41.4167511 35.9775712,41.6666667 36.4192355,41.6666667 C36.5439657,41.6666667 36.6709309,41.6466813 36.7949162,41.6046531 L48.0836422,37.7702955 C48.646099,37.5792585 48.9337661,37.004678 48.7262371,36.4869187 Z" id="Shape" fill="#000000" fill-rule="nonzero"></path>
                <path d="M34.4278625,41.5894525 C34.2302895,40.9904432 33.6356446,40.6841394 33.0998964,40.9051133 L32.6445358,41.0928845 C32.1088891,41.3138584 31.8347806,41.9784799 32.032455,42.5772626 C32.1865396,43.0441408 32.5818883,43.3333333 33.0025798,43.3333333 C33.1213872,43.3333333 33.2423233,43.3102161 33.3604211,43.2616018 L33.8157816,43.0738306 C34.3514284,42.8528567 34.6255368,42.1883485 34.4278625,41.5894525 Z" id="Shape" fill="#000000" fill-rule="nonzero"></path>
                <path d="M48.7271862,32.3164 C48.522474,31.8016303 47.9071832,31.5385474 47.352645,31.7282865 L38.5571555,34.7409312 C38.0026174,34.9308652 37.7190002,35.502128 37.9236075,36.0168977 C38.0832011,36.4181941 38.4923108,36.6666667 38.927757,36.6666667 C39.0507312,36.6666667 39.1759089,36.6467967 39.2981486,36.6050112 L48.0936381,33.5923665 C48.6481763,33.4024326 48.9317934,32.8311697 48.7271862,32.3164 Z" id="Shape" fill="#000000" fill-rule="nonzero"></path>
                <path d="M48.7271862,28.1497333 C48.522474,27.6349636 47.9071832,27.3718807 47.352645,27.5616199 L38.5571555,30.5742645 C38.0026174,30.7641985 37.7190002,31.3354614 37.9236075,31.8502311 C38.0832011,32.2515274 38.4923108,32.5 38.927757,32.5 C39.0507312,32.5 39.1759089,32.48013 39.2981486,32.4383445 L48.0936381,29.4256998 C48.6481763,29.2357659 48.9317934,28.664503 48.7271862,28.1497333 Z" id="Shape" fill="#000000" fill-rule="nonzero"></path>
                <polygon id="Path-2" fill="#00857F" points="21.765441 17.3597861 27.6639553 19.1666667 51.3174603 10.2138618 27.6639553 0.833333333 4.20634921 9.38896623 4.20634921 11.0225147"></polygon>
                <polygon id="Path-5" fill="#00A39B" points="26.9206349 19.3382179 1.55135255 10.8333333 0.841269841 39.3732706 26.9206349 48.3333333"></polygon>
                <polygon id="Path-3" fill="#DD9712" points="20.0012163 17.5 30.2857143 13.0387724 20.0012163 9.16666667 11.9009703 11.9374734 10.0952381 13.3333333"></polygon>
                <polygon id="Path-6" fill="#FAAD18" points="19.3492063 16.3120907 9.56736902 12.5 8.41269841 13.1916079 8.41269841 24.4368535 16.2087668 27.6555346 19.3492063 28.3333333"></polygon>
                <polygon id="Path-4" fill="#04706C" points="51.3174603 10.8333333 26.9206349 19.6496391 26.9206349 48.3333333 51.3174603 39.1102206"></polygon>
                <g id="Shape" fill-rule="nonzero">
                    <use fill="#054C49" fill-rule="evenodd" xlink:href="#path-1"></use>
                    <path d="M52.3097578,9.25108793 L26.8655137,0.0638173729 C26.6296016,-0.0212724576 26.3703984,-0.0212724576 26.1345898,0.0638173729 L0.690345703,9.25108793 L0.690138672,9.25189831 C0.606808594,9.28208494 0.5266875,9.32199613 0.45215625,9.37274613 C0.168833984,9.5660216 0,9.88257603 0,10.2204029 L0,39.7795971 C0,40.2122383 0.275455078,40.5990932 0.690242187,40.7489121 L26.1344863,49.9361826 C26.2531152,49.9790314 26.3768164,50 26.4998965,50 C26.6242187,50 26.7479199,49.9779172 26.8650996,49.9355748 L26.8655137,49.9361826 L52.3097578,40.7489121 C52.7245449,40.5990932 53,40.2123396 53,39.7795971 L53,10.2204029 C53,9.78766035 52.7245449,9.40090681 52.3097578,9.25108793 Z M25.4442441,47.4844812 L2.11151172,39.059575 L2.11151172,11.7028906 L6.86246484,13.4184637 L6.86246484,25.9365959 C6.86246484,26.3692372 7.13791992,26.756092 7.55270703,26.9059109 L18.9550566,31.0231444 C19.0736855,31.0659932 19.1973867,31.0869618 19.3204668,31.0869618 C19.533502,31.0869618 19.7446738,31.0238535 19.9242734,30.9013849 C20.2074922,30.7082108 20.3763262,30.3916563 20.3763262,30.0538294 L20.3763262,18.2979603 L25.4440371,20.1277968 L25.4442441,47.4844812 Z M18.264918,17.5354946 L18.264918,28.5711392 L8.97408008,25.2163713 L8.97408008,14.1807267 L18.264918,17.5354946 Z M10.9682051,12.690034 L19.3206738,9.67410595 L27.6731426,12.690034 L19.3206738,15.705962 L10.9682051,12.690034 Z M26.5,18.3064693 L22.3592715,16.8113194 L31.0886406,13.6592476 C31.5034277,13.5094288 31.7788828,13.1226752 31.7788828,12.6899327 C31.7788828,12.2571901 31.5034277,11.8704366 31.0886406,11.7206177 L19.6861875,7.60348544 C19.4502754,7.51839561 19.1911758,7.51839561 18.9551602,7.60348544 L7.90683398,11.5929829 L4.10574023,10.2204029 L26.5,2.13443788 L48.8942598,10.2205042 L26.5,18.3064693 Z M50.8884883,39.059575 L27.5558594,47.4843799 L27.5558594,20.1277968 L50.8884883,11.7028906 L50.8884883,39.059575 Z"></path>
                </g>
            </g>
        </g>
    </g>
</svg>