<?xml version="1.0" encoding="UTF-8"?>
<svg width="80px" height="80px" viewBox="0 0 80 80" version="1.1" xmlns="http://www.w3.org/2000/svg" xmlns:xlink="http://www.w3.org/1999/xlink">
    <!-- Generator: Sketch 48.1 (47250) - http://www.bohemiancoding.com/sketch -->
    <title>4</title>
    <desc>Created with Sketch.</desc>
    <defs>
        <path d="M41.0474088,7.40087035 L21.0813387,0.0510538983 C20.8962187,-0.0170179661 20.6928223,-0.0170179661 20.5077836,0.0510538983 L0.541713506,7.40087035 L0.541551049,7.40151865 C0.476162029,7.42566796 0.413291096,7.4575969 0.354806507,7.49819691 C0.13248384,7.65281728 0,7.90606083 0,8.17632234 L0,31.8236777 C0,32.1697907 0.216149294,32.4792745 0.541632277,32.5991297 L20.5077024,39.9489461 C20.6007903,39.9832251 20.6978585,40 20.7944393,40 C20.8919949,40 20.989063,39.9823337 21.0810138,39.9484599 L21.0813387,39.9489461 L41.0474088,32.5991297 C41.3728918,32.4792745 41.5890411,32.1698717 41.5890411,31.8236777 L41.5890411,8.17632234 C41.5890411,7.83012828 41.3728918,7.52072545 41.0474088,7.40087035 Z M19.9660701,37.987585 L1.6569009,31.24766 L1.6569009,9.3623125 L5.38496854,10.7347709 L5.38496854,20.7492767 C5.38496854,21.0953898 5.60111783,21.4048736 5.92660081,21.5247287 L14.8740119,24.8185155 C14.9670999,24.8527946 15.064168,24.8695694 15.1607488,24.8695694 C15.3279173,24.8695694 15.4936236,24.8190828 15.6345552,24.721108 C15.8567967,24.5665686 15.9892805,24.3133251 15.9892805,24.0430636 L15.9892805,14.6383682 L19.9659076,16.1022375 L19.9660701,37.987585 Z M14.3324608,14.0283957 L14.3324608,22.8569113 L7.04195066,20.173097 L7.04195066,11.3445814 L14.3324608,14.0283957 Z M8.60673833,10.1520272 L15.1609113,7.73928476 L21.7150842,10.1520272 L15.1609113,12.5647696 L8.60673833,10.1520272 Z M20.7945205,14.6451754 L17.5452955,13.4490555 L24.3952217,10.9273981 C24.7207047,10.807543 24.936854,10.4981402 24.936854,10.1519461 C24.936854,9.80575207 24.7207047,9.49634924 24.3952217,9.37649414 L15.4477295,6.08278835 C15.2626095,6.01471649 15.0592943,6.01471649 14.8740931,6.08278835 L6.20448384,9.27438634 L3.2217698,8.17632234 L20.7945205,1.7075503 L38.3672713,8.17640337 L20.7945205,14.6451754 Z M39.9321402,31.24766 L21.6230522,37.987504 L21.6230522,16.1022375 L39.9321402,9.3623125 L39.9321402,31.24766 Z" id="path-1"></path>
        <path d="M41.0474088,7.40087035 L21.0813387,0.0510538983 C20.8962187,-0.0170179661 20.6928223,-0.0170179661 20.5077836,0.0510538983 L0.541713506,7.40087035 L0.541551049,7.40151865 C0.476162029,7.42566796 0.413291096,7.4575969 0.354806507,7.49819691 C0.13248384,7.65281728 0,7.90606083 0,8.17632234 L0,31.8236777 C0,32.1697907 0.216149294,32.4792745 0.541632277,32.5991297 L20.5077024,39.9489461 C20.6007903,39.9832251 20.6978585,40 20.7944393,40 C20.8919949,40 20.989063,39.9823337 21.0810138,39.9484599 L21.0813387,39.9489461 L41.0474088,32.5991297 C41.3728918,32.4792745 41.5890411,32.1698717 41.5890411,31.8236777 L41.5890411,8.17632234 C41.5890411,7.83012828 41.3728918,7.52072545 41.0474088,7.40087035 Z M19.9660701,37.987585 L1.6569009,31.24766 L1.6569009,9.3623125 L5.38496854,10.7347709 L5.38496854,20.7492767 C5.38496854,21.0953898 5.60111783,21.4048736 5.92660081,21.5247287 L14.8740119,24.8185155 C14.9670999,24.8527946 15.064168,24.8695694 15.1607488,24.8695694 C15.3279173,24.8695694 15.4936236,24.8190828 15.6345552,24.721108 C15.8567967,24.5665686 15.9892805,24.3133251 15.9892805,24.0430636 L15.9892805,14.6383682 L19.9659076,16.1022375 L19.9660701,37.987585 Z M14.3324608,14.0283957 L14.3324608,22.8569113 L7.04195066,20.173097 L7.04195066,11.3445814 L14.3324608,14.0283957 Z M8.60673833,10.1520272 L15.1609113,7.73928476 L21.7150842,10.1520272 L15.1609113,12.5647696 L8.60673833,10.1520272 Z M20.7945205,14.6451754 L17.5452955,13.4490555 L24.3952217,10.9273981 C24.7207047,10.807543 24.936854,10.4981402 24.936854,10.1519461 C24.936854,9.80575207 24.7207047,9.49634924 24.3952217,9.37649414 L15.4477295,6.08278835 C15.2626095,6.01471649 15.0592943,6.01471649 14.8740931,6.08278835 L6.20448384,9.27438634 L3.2217698,8.17632234 L20.7945205,1.7075503 L38.3672713,8.17640337 L20.7945205,14.6451754 Z M39.9321402,31.24766 L21.6230522,37.987504 L21.6230522,16.1022375 L39.9321402,9.3623125 L39.9321402,31.24766 Z" id="path-2"></path>
    </defs>
    <g id="Icon" stroke="none" stroke-width="1" fill="none" fill-rule="evenodd">
        <g id="4">
            <g id="Group" transform="translate(7.000000, 15.000000)">
                <g id="259572">
                    <path d="M38.2354241,29.189535 C38.0724928,28.7753276 37.5827803,28.5634822 37.1414211,28.7163118 L28.2831704,31.7837979 C27.8418112,31.9366275 27.6160791,32.3962919 27.7789269,32.8104993 C27.9059481,33.1334009 28.2315602,33.3333333 28.5781336,33.3333333 C28.6760093,33.3333333 28.7756387,33.317345 28.8729298,33.2837225 L37.7311806,30.2162364 C38.1725398,30.0634068 38.3982719,29.6037424 38.2354241,29.189535 Z" id="Shape" fill="#000000" fill-rule="nonzero"></path>
                    <path d="M27.0155054,33.271562 C26.8604701,32.7923546 26.3938529,32.5473115 25.9734519,32.7240906 L25.616131,32.8743076 C25.1958096,33.0510867 24.980717,33.5827839 25.1358318,34.0618101 C25.2567418,34.4353126 25.5669715,34.6666667 25.8970877,34.6666667 C25.9903157,34.6666667 26.0852142,34.6481728 26.1778853,34.6092814 L26.5352063,34.4590645 C26.9555277,34.2822854 27.1706203,33.7506788 27.0155054,33.271562 Z" id="Shape" fill="#000000" fill-rule="nonzero"></path>
                    <path d="M38.2361688,25.85312 C38.0755314,25.4413042 37.5927134,25.2308379 37.1575679,25.3826292 L30.2557571,27.792745 C29.8206116,27.9446921 29.5980575,28.4017024 29.7586126,28.8135182 C29.8838456,29.1345553 30.2048735,29.3333333 30.5465677,29.3333333 C30.6430654,29.3333333 30.7412922,29.3174373 30.8372136,29.2840089 L37.7390244,26.8738932 C38.1741699,26.721946 38.3967239,26.2649357 38.2361688,25.85312 Z" id="Shape" fill="#000000" fill-rule="nonzero"></path>
                    <path d="M38.2361688,22.5197866 C38.0755314,22.1079709 37.5927134,21.8975046 37.1575679,22.0492959 L30.2557571,24.4594116 C29.8206116,24.6113588 29.5980575,25.0683691 29.7586126,25.4801849 C29.8838456,25.8012219 30.2048735,26 30.5465677,26 C30.6430654,26 30.7412922,25.984104 30.8372136,25.9506756 L37.7390244,23.5405599 C38.1741699,23.3886127 38.3967239,22.9316024 38.2361688,22.5197866 Z" id="Shape" fill="#000000" fill-rule="nonzero"></path>
                    <polygon id="Path-2" fill="#00857F" points="17.0793174 13.8878289 21.707875 15.3333333 40.2687541 8.17108945 21.707875 0.666666667 3.30071755 7.51117299 3.30071755 8.81801178"></polygon>
                    <polygon id="Path-5" fill="#00A39B" points="21.1245923 15.4705743 1.21734462 8.66666667 0.660143509 31.4986165 21.1245923 38.6666667"></polygon>
                    <polygon id="Path-3" fill="#DD9712" points="15.6949322 14 23.7651663 10.4310179 15.6949322 7.33333333 9.33867819 9.54997869 7.92172211 10.6666667"></polygon>
                    <polygon id="Path-6" fill="#FAAD18" points="15.1833007 13.0496725 7.50750383 10 6.60143509 10.5532863 6.60143509 19.5494828 12.7190013 22.1244276 15.1833007 22.6666667"></polygon>
                    <polygon id="Path-4" fill="#04706C" points="40.2687541 8.66666667 21.1245923 15.7197113 21.1245923 38.6666667 40.2687541 31.2881765"></polygon>
                    <g id="Shape" fill-rule="nonzero">
                        <use fill="#054C49" fill-rule="evenodd" xlink:href="#path-1"></use>
                        <path d="M41.0474088,7.40087035 L21.0813387,0.0510538983 C20.8962187,-0.0170179661 20.6928223,-0.0170179661 20.5077836,0.0510538983 L0.541713506,7.40087035 L0.541551049,7.40151865 C0.476162029,7.42566796 0.413291096,7.4575969 0.354806507,7.49819691 C0.13248384,7.65281728 0,7.90606083 0,8.17632234 L0,31.8236777 C0,32.1697907 0.216149294,32.4792745 0.541632277,32.5991297 L20.5077024,39.9489461 C20.6007903,39.9832251 20.6978585,40 20.7944393,40 C20.8919949,40 20.989063,39.9823337 21.0810138,39.9484599 L21.0813387,39.9489461 L41.0474088,32.5991297 C41.3728918,32.4792745 41.5890411,32.1698717 41.5890411,31.8236777 L41.5890411,8.17632234 C41.5890411,7.83012828 41.3728918,7.52072545 41.0474088,7.40087035 Z M19.9660701,37.987585 L1.6569009,31.24766 L1.6569009,9.3623125 L5.38496854,10.7347709 L5.38496854,20.7492767 C5.38496854,21.0953898 5.60111783,21.4048736 5.92660081,21.5247287 L14.8740119,24.8185155 C14.9670999,24.8527946 15.064168,24.8695694 15.1607488,24.8695694 C15.3279173,24.8695694 15.4936236,24.8190828 15.6345552,24.721108 C15.8567967,24.5665686 15.9892805,24.3133251 15.9892805,24.0430636 L15.9892805,14.6383682 L19.9659076,16.1022375 L19.9660701,37.987585 Z M14.3324608,14.0283957 L14.3324608,22.8569113 L7.04195066,20.173097 L7.04195066,11.3445814 L14.3324608,14.0283957 Z M8.60673833,10.1520272 L15.1609113,7.73928476 L21.7150842,10.1520272 L15.1609113,12.5647696 L8.60673833,10.1520272 Z M20.7945205,14.6451754 L17.5452955,13.4490555 L24.3952217,10.9273981 C24.7207047,10.807543 24.936854,10.4981402 24.936854,10.1519461 C24.936854,9.80575207 24.7207047,9.49634924 24.3952217,9.37649414 L15.4477295,6.08278835 C15.2626095,6.01471649 15.0592943,6.01471649 14.8740931,6.08278835 L6.20448384,9.27438634 L3.2217698,8.17632234 L20.7945205,1.7075503 L38.3672713,8.17640337 L20.7945205,14.6451754 Z M39.9321402,31.24766 L21.6230522,37.987504 L21.6230522,16.1022375 L39.9321402,9.3623125 L39.9321402,31.24766 Z"></path>
                    </g>
                </g>
                <g id="259572-copy" transform="translate(45.000000, 30.000000) scale(-1, 1) translate(-45.000000, -30.000000) translate(24.000000, 10.000000)">
                    <path d="M38.2354241,29.189535 C38.0724928,28.7753276 37.5827803,28.5634822 37.1414211,28.7163118 L28.2831704,31.7837979 C27.8418112,31.9366275 27.6160791,32.3962919 27.7789269,32.8104993 C27.9059481,33.1334009 28.2315602,33.3333333 28.5781336,33.3333333 C28.6760093,33.3333333 28.7756387,33.317345 28.8729298,33.2837225 L37.7311806,30.2162364 C38.1725398,30.0634068 38.3982719,29.6037424 38.2354241,29.189535 Z" id="Shape" fill="#000000" fill-rule="nonzero"></path>
                    <path d="M27.0155054,33.271562 C26.8604701,32.7923546 26.3938529,32.5473115 25.9734519,32.7240906 L25.616131,32.8743076 C25.1958096,33.0510867 24.980717,33.5827839 25.1358318,34.0618101 C25.2567418,34.4353126 25.5669715,34.6666667 25.8970877,34.6666667 C25.9903157,34.6666667 26.0852142,34.6481728 26.1778853,34.6092814 L26.5352063,34.4590645 C26.9555277,34.2822854 27.1706203,33.7506788 27.0155054,33.271562 Z" id="Shape" fill="#000000" fill-rule="nonzero"></path>
                    <path d="M38.2361688,25.85312 C38.0755314,25.4413042 37.5927134,25.2308379 37.1575679,25.3826292 L30.2557571,27.792745 C29.8206116,27.9446921 29.5980575,28.4017024 29.7586126,28.8135182 C29.8838456,29.1345553 30.2048735,29.3333333 30.5465677,29.3333333 C30.6430654,29.3333333 30.7412922,29.3174373 30.8372136,29.2840089 L37.7390244,26.8738932 C38.1741699,26.721946 38.3967239,26.2649357 38.2361688,25.85312 Z" id="Shape" fill="#000000" fill-rule="nonzero"></path>
                    <path d="M38.2361688,22.5197866 C38.0755314,22.1079709 37.5927134,21.8975046 37.1575679,22.0492959 L30.2557571,24.4594116 C29.8206116,24.6113588 29.5980575,25.0683691 29.7586126,25.4801849 C29.8838456,25.8012219 30.2048735,26 30.5465677,26 C30.6430654,26 30.7412922,25.984104 30.8372136,25.9506756 L37.7390244,23.5405599 C38.1741699,23.3886127 38.3967239,22.9316024 38.2361688,22.5197866 Z" id="Shape" fill="#000000" fill-rule="nonzero"></path>
                    <polygon id="Path-2" fill="#00857F" points="17.0793174 13.8878289 21.707875 15.3333333 40.2687541 8.17108945 21.707875 0.666666667 3.30071755 7.51117299 3.30071755 8.81801178"></polygon>
                    <polygon id="Path-5" fill="#00A39B" points="21.1245923 15.4705743 1.21734462 8.66666667 0.660143509 31.4986165 21.1245923 38.6666667"></polygon>
                    <polygon id="Path-3" fill="#DD9712" points="15.6949322 14 23.7651663 10.4310179 15.6949322 7.33333333 9.33867819 9.54997869 7.92172211 10.6666667"></polygon>
                    <polygon id="Path-6" fill="#FAAD18" points="15.1833007 13.0496725 7.50750383 10 6.60143509 10.5532863 6.60143509 19.5494828 12.7190013 22.1244276 15.1833007 22.6666667"></polygon>
                    <polygon id="Path-4" fill="#04706C" points="40.2687541 8.66666667 21.1245923 15.7197113 21.1245923 38.6666667 40.2687541 31.2881765"></polygon>
                    <g id="Shape" fill-rule="nonzero">
                        <use fill="#054C49" fill-rule="evenodd" xlink:href="#path-2"></use>
                        <path d="M41.0474088,7.40087035 L21.0813387,0.0510538983 C20.8962187,-0.0170179661 20.6928223,-0.0170179661 20.5077836,0.0510538983 L0.541713506,7.40087035 L0.541551049,7.40151865 C0.476162029,7.42566796 0.413291096,7.4575969 0.354806507,7.49819691 C0.13248384,7.65281728 0,7.90606083 0,8.17632234 L0,31.8236777 C0,32.1697907 0.216149294,32.4792745 0.541632277,32.5991297 L20.5077024,39.9489461 C20.6007903,39.9832251 20.6978585,40 20.7944393,40 C20.8919949,40 20.989063,39.9823337 21.0810138,39.9484599 L21.0813387,39.9489461 L41.0474088,32.5991297 C41.3728918,32.4792745 41.5890411,32.1698717 41.5890411,31.8236777 L41.5890411,8.17632234 C41.5890411,7.83012828 41.3728918,7.52072545 41.0474088,7.40087035 Z M19.9660701,37.987585 L1.6569009,31.24766 L1.6569009,9.3623125 L5.38496854,10.7347709 L5.38496854,20.7492767 C5.38496854,21.0953898 5.60111783,21.4048736 5.92660081,21.5247287 L14.8740119,24.8185155 C14.9670999,24.8527946 15.064168,24.8695694 15.1607488,24.8695694 C15.3279173,24.8695694 15.4936236,24.8190828 15.6345552,24.721108 C15.8567967,24.5665686 15.9892805,24.3133251 15.9892805,24.0430636 L15.9892805,14.6383682 L19.9659076,16.1022375 L19.9660701,37.987585 Z M14.3324608,14.0283957 L14.3324608,22.8569113 L7.04195066,20.173097 L7.04195066,11.3445814 L14.3324608,14.0283957 Z M8.60673833,10.1520272 L15.1609113,7.73928476 L21.7150842,10.1520272 L15.1609113,12.5647696 L8.60673833,10.1520272 Z M20.7945205,14.6451754 L17.5452955,13.4490555 L24.3952217,10.9273981 C24.7207047,10.807543 24.936854,10.4981402 24.936854,10.1519461 C24.936854,9.80575207 24.7207047,9.49634924 24.3952217,9.37649414 L15.4477295,6.08278835 C15.2626095,6.01471649 15.0592943,6.01471649 14.8740931,6.08278835 L6.20448384,9.27438634 L3.2217698,8.17632234 L20.7945205,1.7075503 L38.3672713,8.17640337 L20.7945205,14.6451754 Z M39.9321402,31.24766 L21.6230522,37.987504 L21.6230522,16.1022375 L39.9321402,9.3623125 L39.9321402,31.24766 Z"></path>
                    </g>
                </g>
            </g>
        </g>
    </g>
</svg>