<?xml version="1.0" encoding="UTF-8"?>
<svg width="40px" height="40px" viewBox="0 0 40 40" version="1.1" xmlns="http://www.w3.org/2000/svg" xmlns:xlink="http://www.w3.org/1999/xlink">
    <!-- Generator: Sketch 48.1 (47250) - http://www.bohemiancoding.com/sketch -->
    <title>Location</title>
    <desc>Created with Sketch.</desc>
    <defs></defs>
    <g id="Icon" stroke="none" stroke-width="1" fill="none" fill-rule="evenodd">
        <g id="Location" fill="#00857F" fill-rule="nonzero">
            <g id="ic-my-location-24px" transform="translate(11.000000, 12.000000)">
                <path d="M8.5,5.40909091 C6.79227273,5.40909091 5.40909091,6.79227273 5.40909091,8.5 C5.40909091,10.2077273 6.79227273,11.5909091 8.5,11.5909091 C10.2077273,11.5909091 11.5909091,10.2077273 11.5909091,8.5 C11.5909091,6.79227273 10.2077273,5.40909091 8.5,5.40909091 Z M15.4081818,7.72727273 C15.0527273,4.505 12.495,1.94727273 9.27272727,1.59181818 L9.27272727,0 L7.72727273,0 L7.72727273,1.59181818 C4.505,1.94727273 1.94727273,4.505 1.59181818,7.72727273 L0,7.72727273 L0,9.27272727 L1.59181818,9.27272727 C1.94727273,12.495 4.505,15.0527273 7.72727273,15.4081818 L7.72727273,17 L9.27272727,17 L9.27272727,15.4081818 C12.495,15.0527273 15.0527273,12.495 15.4081818,9.27272727 L17,9.27272727 L17,7.72727273 L15.4081818,7.72727273 Z M8.5,13.9090909 C5.50954545,13.9090909 3.09090909,11.4904545 3.09090909,8.5 C3.09090909,5.50954545 5.50954545,3.09090909 8.5,3.09090909 C11.4904545,3.09090909 13.9090909,5.50954545 13.9090909,8.5 C13.9090909,11.4904545 11.4904545,13.9090909 8.5,13.9090909 Z" id="Shape"></path>
            </g>
        </g>
    </g>
</svg>