<?xml version="1.0" encoding="UTF-8"?>
<svg width="40px" height="40px" viewBox="0 0 40 40" version="1.1" xmlns="http://www.w3.org/2000/svg" xmlns:xlink="http://www.w3.org/1999/xlink">
    <!-- Generator: Sketch 48.1 (47250) - http://www.bohemiancoding.com/sketch -->
    <title>Login</title>
    <desc>Created with Sketch.</desc>
    <defs></defs>
    <g id="Icon" stroke="none" stroke-width="1" fill="none" fill-rule="evenodd">
        <g id="Login" fill="#00857F" fill-rule="nonzero">
            <path d="M11,13.1111111 L11,27.8888889 C11,29.0552778 11.9447222,30 13.1111111,30 L27.8888889,30 C29.0552778,30 30,29.0552778 30,27.8888889 L30,13.1111111 C30,11.9447222 29.0552778,11 27.8888889,11 L13.1111111,11 C11.9447222,11 11,11.9447222 11,13.1111111 Z M23.6666667,17.3333333 C23.6666667,19.0855556 22.2469444,20.5 20.5,20.5 C18.7530556,20.5 17.3333333,19.0855556 17.3333333,17.3333333 C17.3333333,15.5863889 18.7530556,14.1666667 20.5,14.1666667 C22.2469444,14.1666667 23.6666667,15.5863889 23.6666667,17.3333333 Z M14.1666667,25.7777778 C14.1666667,23.6666667 18.3888889,22.5055556 20.5,22.5055556 C22.6111111,22.5055556 26.8333333,23.6666667 26.8333333,25.7777778 L26.8333333,26.8333333 L14.1666667,26.8333333 L14.1666667,25.7777778 Z" id="Shape"></path>
        </g>
    </g>
</svg>