<?xml version="1.0" encoding="UTF-8"?>
<svg width="40px" height="40px" viewBox="0 0 40 40" version="1.1" xmlns="http://www.w3.org/2000/svg" xmlns:xlink="http://www.w3.org/1999/xlink">
    <!-- Generator: Sketch 48.1 (47250) - http://www.bohemiancoding.com/sketch -->
    <title>Mail</title>
    <desc>Created with Sketch.</desc>
    <defs></defs>
    <g id="Icon" stroke="none" stroke-width="1" fill="none" fill-rule="evenodd">
        <g id="Mail" fill="#00857F" fill-rule="nonzero">
            <g id="259550" transform="translate(6.000000, 11.000000)">
                <path d="M26.0182939,0 L0.778896172,0 C0.348704767,0 -1.48754287e-15,0.35408158 -1.48754287e-15,0.790906271 L-1.48754287e-15,2.28253115 L-1.48754287e-15,3.86434369 L-1.48754287e-15,14.1356563 L-1.48754287e-15,15.7174689 L-1.48754287e-15,17.2090937 C-1.48754287e-15,17.6459184 0.348704767,18 0.778896172,18 L26.0182939,18 C26.4484853,18 26.79719,17.6459184 26.79719,17.2090937 L26.79719,0.790906271 C26.79719,0.35408158 26.4484853,0 26.0182939,0 Z M24.0968283,1.58181254 L13.3997024,10.4986041 L2.75137684,1.58181254 L24.0968283,1.58181254 Z M25.2393977,16.418265 L1.55786871,16.418265 L1.55786871,2.63265781 L12.9030692,12.1329938 C13.04695,12.253425 13.2227534,12.3137569 13.3986332,12.3137569 C13.573902,12.3137569 13.7492472,12.2538903 13.8928225,12.1341571 L25.2393977,2.67600682 L25.2393977,16.418265 Z" id="Shape"></path>
            </g>
        </g>
    </g>
</svg>