<?xml version="1.0" encoding="UTF-8"?>
<svg width="40px" height="40px" viewBox="0 0 40 40" version="1.1" xmlns="http://www.w3.org/2000/svg" xmlns:xlink="http://www.w3.org/1999/xlink">
    <!-- Generator: Sketch 48.1 (47250) - http://www.bohemiancoding.com/sketch -->
    <title>Merchandise</title>
    <desc>Created with Sketch.</desc>
    <defs></defs>
    <g id="Icon" stroke="none" stroke-width="1" fill="none" fill-rule="evenodd">
        <g id="Merchandise" fill="#00857F" fill-rule="nonzero">
            <g id="259583" transform="translate(3.000000, 8.000000)">
                <path d="M33.54638,8.53967009 L29.229061,6.88536798 L33.5589972,5.23616105 C33.8244883,5.13507274 34.0003978,4.87555838 33.9999993,4.58581264 C33.9996009,4.2960669 33.822961,4.03709603 33.5572042,3.93675501 L23.2416978,0.0428168486 C23.0898273,-0.0144529422 22.9230155,-0.0142491352 22.771477,0.0432923985 L16.9984724,2.23673218 L11.2537566,0.0530751386 C11.1021518,-0.00467020217 10.9352735,-0.00473813786 10.7834694,0.052531653 L0.468029486,3.94646982 C0.202272718,4.04681084 0.0256991927,4.30564584 0.0252343508,4.59545951 C0.0247695088,4.88520525 0.200678974,5.1447196 0.466170119,5.24587585 L4.75752435,6.8812239 L0.442263963,8.51426214 C0.176374382,8.61494284 -0.00013273708,8.87438926 7.48986095e-08,9.16440674 C0.000132886877,9.45442422 0.176772818,9.71373477 0.44279521,9.81414373 L6.02634359,11.9218487 L6.02634359,19.4132536 C6.02634359,19.7032711 6.20285071,19.9625816 6.46874029,20.0631265 L16.7633952,23.9569967 C16.8395628,23.9858014 16.9191172,24 16.9982067,24 C17.0780931,24 17.1575811,23.9851221 17.2328191,23.956725 L27.5277396,20.0631265 C27.7936292,19.9625816 27.9701363,19.7032711 27.9701363,19.4132536 L27.9701363,11.9422973 L33.5430597,9.83860058 C33.8085509,9.73832749 33.9851908,9.47976424 33.9858548,9.19029024 C33.9865853,8.90074831 33.8114063,8.64123395 33.54638,8.53967009 Z M23.0080152,1.43176213 L31.3738417,4.58975291 L27.2926624,6.14432542 L18.9446327,2.97573667 L23.0080152,1.43176213 Z M2.65092716,4.59960359 L11.0170857,1.44154487 L15.0525777,2.97546493 L6.70421593,6.14425748 L2.65092716,4.59960359 Z M2.63160302,9.16331977 L6.70355187,7.62226646 L15.0474644,10.7849448 L10.9923827,12.3193404 L2.63160302,9.16331977 Z M7.38102577,18.9307064 L7.38102577,12.4332686 L10.7581688,13.7081498 C10.8338052,13.7366828 10.9132267,13.7509493 10.9926483,13.7509493 C11.0722027,13.7509493 11.1518235,13.7366149 11.2275927,13.707946 L16.3210649,11.7806104 L16.3210649,22.3122056 L7.38102577,18.9307064 Z M16.998406,10.0466197 L8.65196999,6.88299023 L17,3.78804378 L25.3447091,6.88299023 L16.998406,10.0466197 Z M26.6157861,18.9306384 L17.6756806,22.3121377 L17.6756806,11.7848224 L22.755938,13.7313159 C22.8325041,13.7605962 22.9129218,13.7753382 22.9934722,13.7753382 C23.0728274,13.7753382 23.1523154,13.7610717 23.2279518,13.7325387 L26.6157861,12.4536493 L26.6157861,18.9306384 Z M22.9951988,12.3432538 L18.9385897,10.7890209 L27.2917327,7.62287789 L31.3651425,9.18370048 L22.9951988,12.3432538 Z" id="Shape"></path>
            </g>
        </g>
    </g>
</svg>