<?xml version="1.0" encoding="UTF-8"?>
<svg width="40px" height="40px" viewBox="0 0 40 40" version="1.1" xmlns="http://www.w3.org/2000/svg" xmlns:xlink="http://www.w3.org/1999/xlink">
    <!-- Generator: Sketch 48.1 (47250) - http://www.bohemiancoding.com/sketch -->
    <title>Receive</title>
    <desc>Created with Sketch.</desc>
    <defs></defs>
    <g id="Icon" stroke="none" stroke-width="1" fill="none" fill-rule="evenodd">
        <g id="Receive" fill="#00857F" fill-rule="nonzero" stroke="#00857F" stroke-width="0.3">
            <g id="747335" transform="translate(9.000000, 9.000000)">
                <path d="M19.421875,0 L2.578125,0 C1.15654688,0 0,1.15654688 0,2.578125 L0,6.015625 L1.71875,6.015625 L1.71875,2.578125 C1.71875,2.10426563 2.10426563,1.71875 2.578125,1.71875 L19.421875,1.71875 C19.8957344,1.71875 20.28125,2.10426563 20.28125,2.578125 L20.28125,19.421875 C20.28125,19.8957344 19.8957344,20.28125 19.421875,20.28125 L2.578125,20.28125 C2.10426563,20.28125 1.71875,19.8957344 1.71875,19.421875 L1.71875,15.984375 L0,15.984375 L0,19.421875 C0,20.8434531 1.15654688,22 2.578125,22 L19.421875,22 C20.8434531,22 22,20.8434531 22,19.421875 L22,2.578125 C22,1.15654688 20.8434531,0 19.421875,0 Z" id="Shape"></path>
                <polygon id="Shape" points="11.2000527 6 9.88012649 7.13787776 13.4268099 10.1953912 0 10.1953912 0 11.8046088 13.4268099 11.8046088 9.88012649 14.8621222 11.2000527 16 17 11"></polygon>
            </g>
        </g>
    </g>
</svg>