<?xml version="1.0" encoding="UTF-8"?>
<svg width="40px" height="40px" viewBox="0 0 40 40" version="1.1" xmlns="http://www.w3.org/2000/svg" xmlns:xlink="http://www.w3.org/1999/xlink">
    <!-- Generator: Sketch 48.1 (47250) - http://www.bohemiancoding.com/sketch -->
    <title>Service</title>
    <desc>Created with Sketch.</desc>
    <defs></defs>
    <g id="Icon" stroke="none" stroke-width="1" fill="none" fill-rule="evenodd">
        <g id="Service" fill="#00857F" fill-rule="nonzero">
            <g id="61222-copy-2" transform="translate(9.000000, 9.000000)">
                <path d="M6.49,8.91 L4.95,10.45 L9.9,15.4 L20.1928932,5.10710678 C20.5834175,4.71658249 20.5834175,4.08341751 20.1928932,3.69289322 L20.0671068,3.56710678 C19.6765825,3.17658249 19.0434175,3.17658249 18.6528932,3.56710678 L9.9,12.32 L6.49,8.91 Z M19.8,11 C19.8,15.84 15.84,19.8 11,19.8 C6.16,19.8 2.2,15.84 2.2,11 C2.2,6.16 6.16,2.2 11,2.2 C11.4847416,2.2 12.1196799,2.27509836 12.904815,2.42529508 L12.9048174,2.42528245 C13.230293,2.48754608 13.5654751,2.38452847 13.7997973,2.15021199 L14.3000216,1.65 C14.578836,1.37119238 14.5788416,0.919150366 14.3000339,0.64033591 C14.2071644,0.547464075 14.0904759,0.482009961 13.9628077,0.451175458 C12.7173657,0.150399324 11.7297649,0 11,0 C4.95,0 0,4.95 0,11 C0,17.05 4.95,22 11,22 C17.05,22 22,17.05 22,11 C22,11 21.2666667,11 19.8,11 Z" id="Shape"></path>
            </g>
        </g>
    </g>
</svg>